<svg width="220" height="221" viewBox="0 0 220 221" fill="none" xmlns="http://www.w3.org/2000/svg">
<path d="M89.9253 2.06317C95.3915 1.028 104.37 0.685935 113.275 0.945007C122.182 1.20416 130.94 2.06265 135.969 3.40106C159.465 9.65522 180.031 22.9626 194.928 41.5475C203.32 52.0154 212.453 70.2075 216.094 83.7106C217.318 88.2469 217.985 91.1363 218.359 94.9811C218.687 98.3578 218.79 102.477 218.833 109.091L218.848 112.083C218.889 122.174 218.695 128.56 217.793 134.345C216.891 140.125 215.281 145.324 212.465 153.038V153.039C206.656 168.958 197.95 182.165 184.911 194.834C177.019 202.5 166.922 209.542 158.148 214.118C153.759 216.406 149.721 218.067 146.468 218.885C144.842 219.295 143.431 219.488 142.283 219.453C141.129 219.417 140.293 219.152 139.752 218.704C139.55 218.536 139.338 218.229 139.151 217.544C138.964 216.855 138.816 215.84 138.707 214.317C138.487 211.274 138.423 206.315 138.423 198.139C138.423 187.692 138.18 180.852 137.427 175.98C136.672 171.086 135.397 168.145 133.325 165.51L131.847 163.633L137.591 162.633C149.472 160.564 158.887 156.352 165.922 149.855C172.96 143.356 177.581 134.603 179.929 123.519C183.434 106.981 181.032 91.6003 173.103 80.238C171.725 78.2642 171.105 77.2909 170.91 76.195C170.713 75.0869 170.942 73.8094 171.503 71.1911C172.746 65.4004 172.206 56.3546 170.246 49.8102C169.975 48.9058 169.742 48.1801 169.488 47.613C169.231 47.0412 168.934 46.5879 168.509 46.2604C168.082 45.9315 167.576 45.7668 166.972 45.6804C166.376 45.595 165.642 45.5807 164.74 45.5807C162.072 45.5808 158.658 46.3509 154.97 47.6921C151.506 48.9521 147.773 50.7264 144.149 52.8766L143.425 53.3122C141.714 54.3558 140.051 55.265 138.752 55.8893C138.102 56.2022 137.552 56.4392 137.138 56.5856C136.931 56.6591 136.769 56.7058 136.653 56.7292C136.588 56.7422 136.553 56.744 136.541 56.7448C134.238 56.0031 129.537 55.2163 124.474 54.6149C119.372 54.0088 113.843 53.5837 109.923 53.5837C105.631 53.5837 99.2261 54.1332 93.7437 54.8386C91.001 55.1914 88.4789 55.5842 86.5591 55.9694C85.6007 56.1618 84.783 56.3541 84.1597 56.5407C83.8485 56.6339 83.5759 56.7288 83.355 56.8249C83.1896 56.8969 83.0213 56.9842 82.8843 57.0915C82.869 57.0899 82.8504 57.0894 82.8287 57.0856C82.6911 57.0617 82.4861 56.9972 82.2212 56.8845C81.6972 56.6614 81.0185 56.2816 80.3208 55.7975C76.2399 52.9659 71.3898 50.4172 66.8277 48.5749C62.2796 46.7383 57.9603 45.5807 54.9556 45.5807C54.0954 45.5808 53.3911 45.5974 52.814 45.6862C52.2281 45.7764 51.7346 45.9463 51.3169 46.278C50.9028 46.6069 50.609 47.0588 50.354 47.6276C50.1008 48.1927 49.8689 48.9135 49.6001 49.8102C47.6369 56.363 47.1 65.4012 48.3453 71.2067C48.8664 73.6373 49.0841 74.9756 48.9898 75.986C48.9 76.9469 48.5238 77.641 47.6871 78.7722C46.6184 80.2179 44.7199 83.4141 43.4576 85.8845C36.1688 100.142 36.8143 121.383 44.9771 137.973C51.2676 150.757 62.7255 158.659 79.9117 162.19L87.7671 163.803L85.8755 166.592C84.5727 168.512 83.2161 171.624 82.854 173.553C82.4533 175.69 81.9774 176.84 80.8999 177.667C79.7731 178.531 77.9289 179.094 74.5884 179.795C69.5333 180.855 65.3686 180.481 61.4146 178.381C57.4378 176.268 53.6216 172.382 49.3316 166.307C45.1565 160.396 39.5285 156.847 33.7896 156.609L33.2339 156.596C31.4619 156.59 30.08 156.739 29.1392 157.091C28.6652 157.269 28.2636 157.512 27.9888 157.85C27.7032 158.202 27.5842 158.621 27.6226 159.075C27.6946 159.925 28.317 160.879 29.2896 161.921C30.2846 162.986 31.7327 164.23 33.6207 165.662C36.9131 168.16 39.1303 171.152 42.5738 177.857C46.625 185.748 49.8999 190.593 54.1998 193.437C58.5115 196.289 63.7786 197.081 71.6714 197.081H81.4205L81.4214 207.131C81.4219 210.038 81.3868 212.285 81.2583 214.024C81.1292 215.771 80.9077 216.958 80.5611 217.771C80.2267 218.555 79.7815 218.979 79.1665 219.229C78.5139 219.495 77.6348 219.581 76.3999 219.581C76.0033 219.581 75.4103 219.481 74.6333 219.275C73.8646 219.071 72.9453 218.77 71.9097 218.388C69.8391 217.624 67.3237 216.542 64.6441 215.272C59.2827 212.731 53.2945 209.455 48.9312 206.514C30.9507 194.398 14.9681 173.831 7.38042 153.039C4.56406 145.322 2.95398 140.122 2.05327 134.343C1.15164 128.559 0.957563 122.174 0.999557 112.083C1.03458 103.746 1.11939 98.9012 1.48784 95.0427C1.85498 91.198 2.50506 88.3259 3.68315 83.9333C6.45982 73.576 12.7783 59.2638 18.5748 50.2028C34.0262 26.0483 61.635 7.42067 89.9253 2.06317Z" fill="black" stroke="black"/>
</svg>
