<svg width="215" height="253" viewBox="0 0 215 253" fill="none" xmlns="http://www.w3.org/2000/svg">
<path fill-rule="evenodd" clip-rule="evenodd" d="M115.85 1.16912C112.076 3.30712 11.885 111.067 8.10998 117.047C2.42498 126.055 0.636976 132.147 0.112976 144.292C-0.449024 157.298 0.993975 164.391 6.51797 175.773C9.88397 182.708 12.3 185.397 38.58 211.469C54.213 226.977 69.515 241.333 72.585 243.371C75.655 245.409 81.363 248.246 85.269 249.675C91.719 252.035 93.701 252.27 106.871 252.241C120.296 252.211 121.89 252.004 128.371 249.453C139.25 245.169 145.153 240.683 162.031 223.871C174.602 211.35 177.932 207.454 178.91 204.119C182.389 192.271 172.354 181.681 160.639 184.836C157.157 185.773 153.534 188.8 140.215 201.897C122.626 219.191 118.969 221.591 108.791 222.514C102.308 223.102 94.766 221.133 89.317 217.43C87.538 216.221 74.842 204.201 61.103 190.719C32.074 162.231 30.423 159.92 30.419 147.773C30.418 141.916 30.911 139.339 32.672 136.009C34.835 131.916 75.083 87.7061 80.945 82.9841C85.343 79.4401 94.512 76.6951 102.062 76.6631C113.865 76.6121 117.785 78.5471 136.009 93.4241C164.702 116.845 165.776 117.486 173.468 115.751C182.541 113.705 187.732 102.207 183.381 93.7921C182.561 92.2081 173.674 84.2691 163.631 76.1501C153.588 68.0321 145.146 61.1081 144.871 60.7651C142.082 57.2841 126.729 49.2951 119.079 47.3431L114.585 46.1971L123.863 36.4971C128.965 31.1621 134.199 25.3611 135.494 23.6071C140.237 17.1771 139.565 8.72812 133.876 3.27812C131.295 0.805121 129.895 0.318121 124.604 0.0531207C120.526 -0.150879 117.499 0.235121 115.85 1.16912ZM88.413 134.487C76.479 137.613 73.987 155.559 84.528 162.469C87.086 164.145 91.296 164.293 144.102 164.555C181.378 164.739 202.258 164.477 204.805 163.791C207.121 163.167 209.936 161.324 211.78 159.224C214.466 156.165 214.87 154.955 214.864 149.988C214.857 143.706 213.283 140.459 208.374 136.596L205.421 134.273L147.896 134.123C116.257 134.041 89.49 134.205 88.413 134.487Z" fill="black"/>
</svg>
