<svg width="425" height="242" viewBox="0 0 425 242" fill="none" xmlns="http://www.w3.org/2000/svg">
<path d="M169.479 16.348C169.376 15.3168 168.938 14.5156 168.162 13.9446C167.386 13.3736 166.334 13.0881 165.004 13.0881C164.101 13.0881 163.338 13.2159 162.716 13.4716C162.094 13.7187 161.616 14.0639 161.284 14.5071C160.96 14.9503 160.798 15.4531 160.798 16.0156C160.781 16.4844 160.879 16.8935 161.092 17.2429C161.314 17.5923 161.616 17.8949 162 18.1506C162.384 18.3977 162.827 18.6151 163.33 18.8026C163.832 18.9815 164.369 19.1349 164.94 19.2628L167.293 19.8253C168.435 20.081 169.483 20.4219 170.438 20.848C171.392 21.2741 172.219 21.7983 172.918 22.4205C173.616 23.0426 174.158 23.7756 174.541 24.6193C174.933 25.4631 175.134 26.4304 175.142 27.5213C175.134 29.1236 174.724 30.5128 173.915 31.6889C173.114 32.8565 171.955 33.7642 170.438 34.4119C168.929 35.0511 167.109 35.3707 164.979 35.3707C162.865 35.3707 161.024 35.0469 159.456 34.3991C157.896 33.7514 156.678 32.7926 155.8 31.5227C154.93 30.2443 154.474 28.6634 154.432 26.7798H159.788C159.848 27.6577 160.099 28.3906 160.543 28.9787C160.994 29.5582 161.595 29.9972 162.345 30.2955C163.104 30.5852 163.96 30.7301 164.915 30.7301C165.852 30.7301 166.666 30.5937 167.357 30.321C168.055 30.0483 168.597 29.669 168.98 29.1832C169.364 28.6974 169.555 28.1392 169.555 27.5085C169.555 26.9205 169.381 26.4261 169.031 26.0256C168.69 25.625 168.188 25.2841 167.523 25.0028C166.866 24.7216 166.061 24.4659 165.107 24.2358L162.256 23.5199C160.048 22.983 158.305 22.1435 157.027 21.0014C155.749 19.8594 155.114 18.321 155.122 16.3864C155.114 14.8011 155.536 13.4162 156.388 12.2315C157.249 11.0469 158.429 10.1222 159.929 9.45739C161.429 8.79261 163.134 8.46023 165.043 8.46023C166.986 8.46023 168.682 8.79261 170.131 9.45739C171.588 10.1222 172.722 11.0469 173.531 12.2315C174.341 13.4162 174.759 14.7884 174.784 16.348H169.479ZM177.868 13.3821V8.81818H199.371V13.3821H191.355V35H185.884V13.3821H177.868ZM204.226 35H198.294L207.332 8.81818H214.466L223.491 35H217.56L211.001 14.8011H210.797L204.226 35ZM203.855 24.7088H217.866V29.0298H203.855V24.7088ZM248.513 17.9844H242.914C242.811 17.2599 242.603 16.6165 242.287 16.054C241.972 15.483 241.567 14.9972 241.073 14.5966C240.578 14.196 240.007 13.8892 239.36 13.6761C238.721 13.4631 238.026 13.3565 237.276 13.3565C235.921 13.3565 234.74 13.6932 233.735 14.3665C232.729 15.0312 231.949 16.0028 231.395 17.2812C230.841 18.5511 230.564 20.0937 230.564 21.9091C230.564 23.7756 230.841 25.3437 231.395 26.6136C231.958 27.8835 232.742 28.8423 233.748 29.4901C234.753 30.1378 235.917 30.4616 237.238 30.4616C237.979 30.4616 238.665 30.3636 239.296 30.1676C239.935 29.9716 240.502 29.6861 240.996 29.3111C241.49 28.9276 241.9 28.4631 242.223 27.9176C242.556 27.3722 242.786 26.75 242.914 26.0511L248.513 26.0767C248.368 27.2784 248.006 28.4375 247.426 29.554C246.855 30.6619 246.084 31.6548 245.113 32.5327C244.15 33.402 242.999 34.0923 241.661 34.6037C240.331 35.1065 238.827 35.358 237.148 35.358C234.813 35.358 232.725 34.8295 230.884 33.7727C229.051 32.7159 227.603 31.1861 226.537 29.1832C225.48 27.1804 224.952 24.7557 224.952 21.9091C224.952 19.054 225.489 16.625 226.563 14.6222C227.637 12.6193 229.094 11.0937 230.935 10.0455C232.776 8.98864 234.847 8.46023 237.148 8.46023C238.665 8.46023 240.071 8.67329 241.367 9.09943C242.671 9.52557 243.826 10.1477 244.831 10.9659C245.837 11.7756 246.655 12.7685 247.286 13.9446C247.925 15.1207 248.334 16.4673 248.513 17.9844ZM252.483 35V8.81818H258.018V20.3622H258.363L267.785 8.81818H274.42L264.704 20.5412L274.535 35H267.913L260.741 24.2358L258.018 27.5597V35H252.483Z" fill="black"/>
<line x1="109" y1="198" x2="109" y2="91" stroke="black" stroke-width="4"/>
<line x1="309" y1="204" x2="309" y2="123" stroke="black" stroke-width="4"/>
<line x1="211" y1="155" x2="211" y2="59" stroke="black" stroke-width="4"/>
<line x1="177.998" y1="137.264" x2="211.004" y2="137.264" stroke="black" stroke-width="4"/>
<line x1="213" y1="107" x2="258" y2="107" stroke="black" stroke-width="4"/>
<line x1="258" y1="107" x2="288" y2="107" stroke="black" stroke-width="4"/>
<line x1="325" y1="107" x2="350" y2="107" stroke="black" stroke-width="4"/>
<line x1="348" y1="107" x2="381.006" y2="107" stroke="black" stroke-width="4"/>
<line x1="44" y1="176" x2="192" y2="176" stroke="black" stroke-width="4"/>
<line x1="211.266" y1="38.0232" x2="211" y2="61.0232" stroke="black" stroke-width="4"/>
<line x1="209" y1="59" x2="139" y2="59" stroke="black" stroke-width="4"/>
<path d="M384 176L233 176" stroke="black" stroke-width="4"/>
<line x1="139" y1="102" x2="83" y2="102" stroke="black" stroke-width="4"/>
<line x1="139" y1="102" x2="47" y2="102" stroke="black" stroke-width="4"/>
<line x1="137.115" y1="103.003" x2="136.988" y2="26.0033" stroke="black" stroke-width="4"/>
<line x1="260" y1="109.028" x2="259" y2="38.0282" stroke="black" stroke-width="4"/>
<line x1="346" y1="109" x2="346" y2="23" stroke="black" stroke-width="4"/>
<line x1="150.001" y1="25" x2="44.0008" y2="25.0308" stroke="black" stroke-width="4"/>
<line x1="276" y1="25" x2="381" y2="25" stroke="black" stroke-width="4"/>
<g clip-path="url(#clip0_16_49)">
<mask id="mask0_16_49" style="mask-type:luminance" maskUnits="userSpaceOnUse" x="3" y="80" width="40" height="40">
<path d="M43 80H3V120H43V80Z" fill="white"/>
</mask>
<g mask="url(#mask0_16_49)">
<path d="M23 118.438C33.1828 118.438 41.4375 110.183 41.4375 100C41.4375 89.8172 33.1828 81.5625 23 81.5625C12.8172 81.5625 4.5625 89.8172 4.5625 100C4.5625 110.183 12.8172 118.438 23 118.438Z" fill="black" stroke="black" stroke-linecap="round" stroke-linejoin="round"/>
<path d="M29.575 107.5V92.5Z" fill="black"/>
<path d="M29.575 107.5V92.5" stroke="url(#paint0_linear_16_49)" stroke-miterlimit="1.41421" stroke-linejoin="round"/>
<path fill-rule="evenodd" clip-rule="evenodd" d="M17.9875 92.5022L14.8625 92.5V107.5H17.9875V97.4199L33.9037 116.769C34.78 116.198 35.6085 115.561 36.3825 114.863L17.9875 92.5022Z" fill="url(#paint1_linear_16_49)"/>
</g>
</g>
<g clip-path="url(#clip1_16_49)">
<path fill-rule="evenodd" clip-rule="evenodd" d="M19.9855 16C14.6618 16 11.3455 18.2195 10.0073 22.6585C12.0145 20.439 14.3418 19.6098 17.0182 20.1463C18.5309 20.4634 19.6364 21.3902 20.8291 22.3902C22.7782 24.0732 25.0473 26 29.9927 26C35.3164 26 38.6618 23.7805 40 19.3415C37.9927 21.561 35.6655 22.3902 33.0182 21.8293C31.5055 21.5122 30.4 20.5854 29.2073 19.5854C27.2291 17.9268 24.96 16 19.9855 16ZM10.0073 26C4.65455 26 1.33818 28.2195 0 32.6585C2.00727 30.439 4.33455 29.6098 7.01091 30.1463C8.52364 30.4634 9.62909 31.3902 10.8218 32.3902C12.7709 34.0732 15.04 36 19.9855 36C25.3091 36 28.6545 33.7805 29.9927 29.3415C27.9855 31.561 25.6582 32.3902 22.9818 31.8293C21.4691 31.5122 20.3636 30.5854 19.1709 29.5854C17.2218 27.9268 14.9527 26 10.0073 26Z" fill="#38BDF8"/>
</g>
<path fill-rule="evenodd" clip-rule="evenodd" d="M299.8 212.177C299.8 212.937 300.423 213.553 301.192 213.553H309.014H312.724C314.039 213.553 315.121 213.955 315.971 214.758C316.822 215.561 317.247 216.594 317.247 217.856C317.247 219.022 316.822 219.978 315.971 220.724C315.121 221.45 314.039 221.814 312.724 221.814H307.712C306.944 221.814 306.321 222.43 306.321 223.19C306.321 223.951 306.944 224.567 307.712 224.567H312.724H313.246L318.233 232.483C318.542 232.961 318.977 233.2 319.537 233.2C320.156 233.2 320.591 232.961 320.842 232.483C321.093 231.986 321.045 231.46 320.697 230.906L316.261 223.85C317.46 223.315 318.407 222.531 319.102 221.498C319.798 220.446 320.146 219.232 320.146 217.856C320.146 216.46 319.827 215.236 319.189 214.184C318.571 213.133 317.701 212.311 316.58 211.718C315.459 211.106 314.174 210.8 312.724 210.8H301.192C300.423 210.8 299.8 211.416 299.8 212.177Z" fill="black"/>
<g clip-path="url(#clip2_16_49)">
<path d="M98.0834 202.004H123.917C127.833 202.004 131 205.251 131 209.268V234.732C131 238.749 127.833 241.996 123.917 241.996H98.0834C94.1667 241.996 91 238.749 91 234.732V209.268C91 205.251 94.1667 202.004 98.0834 202.004Z" fill="#00005B"/>
<path d="M107.067 225.931H100.867L99.6 229.964C99.5667 230.118 99.4333 230.22 99.2834 230.203H96.1501C95.9667 230.203 95.9168 230.101 95.9667 229.896L101.333 214.121C101.383 213.95 101.433 213.796 101.5 213.591C101.567 213.232 101.6 212.856 101.6 212.48C101.584 212.395 101.65 212.309 101.733 212.292H106.05C106.167 212.292 106.25 212.344 106.267 212.429L112.35 229.861C112.4 230.049 112.35 230.135 112.183 230.135H108.7C108.583 230.152 108.467 230.066 108.433 229.947L107.067 225.845V225.931L107.067 225.931ZM101.833 222.53H106.067C105.967 222.171 105.833 221.744 105.683 221.299C105.533 220.838 105.383 220.342 105.233 219.83C105.067 219.3 104.917 218.787 104.75 218.257C104.583 217.727 104.433 217.232 104.3 216.736C104.167 216.258 104.05 215.813 103.933 215.403H103.9C103.75 216.138 103.567 216.873 103.333 217.608C103.084 218.428 102.833 219.283 102.567 220.137C102.35 221.009 102.083 221.812 101.833 222.53V222.53ZM122.167 224.393H116.883C116.95 224.922 117.117 225.452 117.4 225.914C117.7 226.375 118.117 226.734 118.617 226.939C119.283 227.23 120.017 227.383 120.75 227.366C121.333 227.349 121.917 227.298 122.483 227.178C123 227.11 123.5 226.973 123.967 226.785C124.05 226.717 124.1 226.751 124.1 226.922V229.537C124.1 229.605 124.083 229.673 124.067 229.742C124.033 229.793 124 229.827 123.95 229.862C123.417 230.101 122.867 230.272 122.283 230.374C121.5 230.528 120.716 230.596 119.916 230.579C118.65 230.579 117.583 230.374 116.716 229.981C115.9 229.622 115.183 229.058 114.616 228.357C114.083 227.691 113.7 226.939 113.467 226.119C113.233 225.315 113.116 224.478 113.116 223.623C113.116 222.701 113.25 221.795 113.533 220.906C113.8 220.052 114.216 219.265 114.783 218.565C115.333 217.881 116.016 217.334 116.8 216.941C117.583 216.548 118.516 216.411 119.583 216.411C120.466 216.394 121.35 216.565 122.166 216.941C122.85 217.249 123.45 217.71 123.916 218.308C124.35 218.889 124.7 219.539 124.916 220.256C125.133 220.94 125.233 221.641 125.233 222.341C125.233 222.752 125.216 223.111 125.2 223.435C125.167 223.76 125.15 223.999 125.133 224.153C125.116 224.273 125.016 224.375 124.9 224.375C124.8 224.375 124.616 224.392 124.35 224.409C124.083 224.443 123.766 224.461 123.383 224.461C123 224.461 122.6 224.392 122.166 224.392L122.167 224.393ZM116.883 221.897H120.4C120.833 221.897 121.15 221.897 121.35 221.88C121.483 221.863 121.617 221.829 121.733 221.744V221.573C121.733 221.351 121.7 221.146 121.633 220.94C121.333 219.983 120.45 219.334 119.467 219.368C118.55 219.317 117.683 219.812 117.25 220.667C117.05 221.06 116.933 221.47 116.883 221.898L116.883 221.897Z" fill="#9999FF"/>
</g>
<g clip-path="url(#clip3_16_49)">
<path d="M158.5 136C158.5 132.356 161.934 129.401 166.171 129.401C170.408 129.401 173.842 132.356 173.842 136C173.842 139.644 170.408 142.599 166.171 142.599C161.934 142.599 158.5 139.644 158.5 136Z" fill="#1ABCFE"/>
<path d="M143.158 149.198C143.158 145.553 146.592 142.599 150.829 142.599H158.5V149.198C158.5 152.842 155.066 155.796 150.829 155.796C146.592 155.796 143.158 152.842 143.158 149.198Z" fill="#0ACF83"/>
<path d="M158.5 116.204V129.401H166.171C170.408 129.401 173.842 126.447 173.842 122.802C173.842 119.158 170.408 116.204 166.171 116.204H158.5Z" fill="#FF7262"/>
<path d="M143.158 122.802C143.158 126.447 146.592 129.401 150.829 129.401H158.5V116.204H150.829C146.592 116.204 143.158 119.158 143.158 122.802Z" fill="#F24E1E"/>
<path d="M143.158 136C143.158 139.644 146.592 142.599 150.829 142.599H158.5V129.401H150.829C146.592 129.401 143.158 132.356 143.158 136Z" fill="#A259FF"/>
</g>
<g clip-path="url(#clip4_16_49)">
<path d="M20.0703 179.703C17.9543 179.703 16.239 181.609 16.239 183.961C16.239 186.312 17.9543 188.219 20.0703 188.219C22.1863 188.219 23.9016 186.312 23.9016 183.961C23.9016 181.609 22.1863 179.703 20.0703 179.703Z" fill="#087EA4"/>
<path d="M39.9972 184C39.9972 180.657 37.2118 177.725 32.7769 175.796C32.8362 175.361 32.8898 174.931 32.9279 174.509C33.3653 169.706 32.324 166.24 29.9972 164.746C27.3938 163.076 23.7167 164.288 19.9986 167.595C16.2805 164.288 12.6034 163.076 10 164.746C7.6732 166.24 6.63186 169.706 7.06928 174.509C7.10738 174.931 7.15959 175.363 7.22026 175.799C6.85057 175.956 6.48794 176.122 6.13941 176.296C2.18005 178.274 0 181.013 0 184C0 187.342 2.78538 190.274 7.22026 192.203C7.15959 192.638 7.10738 193.068 7.06928 193.49C6.63186 198.293 7.6732 201.759 10 203.253C10.8 203.757 11.7065 204.015 12.6259 203.999C14.83 203.999 17.4037 202.71 19.9986 200.404C22.5921 202.71 25.1672 203.999 27.3741 203.999C28.2935 204.014 29.1999 203.757 30 203.253C32.3268 201.759 33.3681 198.293 32.9307 193.49C32.8926 193.068 32.839 192.638 32.7797 192.203C37.2146 190.277 40 187.341 40 184M27.3571 166.117C27.9483 166.102 28.5327 166.261 29.0504 166.579C30.666 167.615 31.3913 170.428 31.0385 174.295C31.0145 174.558 30.9863 174.825 30.9524 175.093C29.1084 174.476 27.2201 174.035 25.3083 173.777C24.1494 172.064 22.8606 170.465 21.4562 168.997C23.6616 167.102 25.7316 166.117 27.3557 166.117M26.598 188.235C25.8844 189.612 25.1072 190.947 24.2698 192.235C22.8503 192.397 21.4242 192.478 19.9972 192.476C18.5707 192.477 17.145 192.397 15.726 192.235C14.8907 190.947 14.116 189.612 13.4048 188.235C12.6912 186.862 12.0427 185.448 11.4618 184C12.0427 182.551 12.6912 181.137 13.4048 179.764C14.1149 178.393 14.8872 177.063 15.7189 175.778C17.1406 175.612 18.5691 175.53 19.9986 175.531C21.4251 175.53 22.8507 175.61 24.2698 175.772C25.1043 177.058 25.8795 178.391 26.5924 179.764C27.3054 181.138 27.9539 182.551 28.5353 184C27.9539 185.448 27.3054 186.861 26.5924 188.235M29.5061 186.666C29.954 188.024 30.3216 189.412 30.6067 190.823C29.3694 191.252 28.108 191.59 26.8308 191.835C27.3162 191.021 27.7866 190.175 28.2419 189.295C28.692 188.426 29.1139 187.549 29.5118 186.672M17.319 194.498C18.1967 194.558 19.0927 194.592 20 194.592C20.9073 194.592 21.8089 194.558 22.688 194.498C21.8545 195.608 20.9566 196.656 20 197.636C19.0455 196.656 18.1499 195.608 17.319 194.498ZM13.1678 191.832C11.8901 191.588 10.6283 191.251 9.39043 190.823C9.67441 189.415 10.0406 188.028 10.4868 186.672C10.8791 187.549 11.2996 188.426 11.7567 189.295C12.2139 190.164 12.6866 191.021 13.1678 191.835M10.4868 181.325C10.0422 179.975 9.67696 178.593 9.39325 177.19C10.6281 176.762 11.8865 176.423 13.1607 176.175C12.6781 176.986 12.2054 177.827 11.7497 178.704C11.2939 179.581 10.8777 180.447 10.4798 181.325M22.6796 173.499C21.8019 173.44 20.9059 173.405 19.9915 173.405C19.0847 173.405 18.1911 173.437 17.3106 173.499C18.1414 172.389 19.037 171.341 19.9915 170.362C20.9485 171.341 21.8464 172.389 22.6796 173.499ZM28.239 178.704C27.7819 177.823 27.3092 176.976 26.8209 176.163C28.1015 176.408 29.3662 176.746 30.6067 177.176C30.3221 178.584 29.9559 179.971 29.5104 181.327C29.1181 180.45 28.6962 179.573 28.2404 178.705M8.9643 174.296C8.60731 170.431 9.33681 167.617 10.951 166.58C11.4689 166.263 12.0531 166.104 12.6443 166.119C14.2684 166.119 16.3384 167.104 18.5438 168.999C17.1384 170.468 15.8487 172.068 14.6889 173.782C12.7776 174.041 10.8895 174.48 9.04473 175.093C9.01228 174.825 8.98264 174.56 8.96007 174.296M6.92112 178.227C7.13842 178.122 7.35995 178.018 7.58572 177.913C8.02956 179.995 8.63141 182.031 9.38479 184C8.62998 185.972 8.02765 188.012 7.58431 190.098C3.98899 188.459 1.9049 186.188 1.9049 184C1.9049 181.926 3.73924 179.822 6.92112 178.227ZM10.951 201.419C9.33681 200.382 8.60731 197.568 8.9643 193.703C8.98688 193.439 9.01651 193.174 9.04896 192.905C10.8931 193.522 12.7813 193.962 14.6931 194.221C15.8524 195.934 17.1411 197.534 18.5452 199.003C15.4706 201.643 12.6612 202.514 10.9553 201.419M31.0371 193.703C31.3899 197.57 30.6646 200.382 29.049 201.419C27.3444 202.517 24.5337 201.643 21.4604 199.003C22.8641 197.534 24.1523 195.934 25.3111 194.221C27.2229 193.962 29.1112 193.522 30.9553 192.905C30.9891 193.174 31.0174 193.439 31.0413 193.703M32.4213 190.095C31.9767 188.01 31.374 185.971 30.6194 184C31.3736 182.027 31.9759 179.987 32.4199 177.901C36.0082 179.54 38.0979 181.811 38.0979 184C38.0979 186.188 36.0138 188.459 32.4185 190.098" fill="#087EA4"/>
</g>
<g clip-path="url(#clip5_16_49)">
<path d="M96.0833 48.0044H121.917C125.833 48.0044 129 51.2516 129 55.2679V80.7327C129 84.749 125.833 87.9962 121.917 87.9962H96.0833C92.1667 87.9962 89 84.749 89 80.7327V55.2679C89 51.2516 92.1667 48.0044 96.0833 48.0044Z" fill="#001E36"/>
<path d="M98 76.0496V58.4635C98 58.3439 98.05 58.2755 98.1667 58.2755C98.45 58.2755 98.7167 58.2755 99.1 58.2584C99.5 58.2413 99.9167 58.2413 100.367 58.2242C100.817 58.2072 101.3 58.2072 101.817 58.1901C102.333 58.173 102.833 58.173 103.333 58.173C104.7 58.173 105.833 58.3439 106.767 58.7028C107.6 58.9933 108.367 59.4719 109 60.1042C109.533 60.6511 109.95 61.3176 110.217 62.0525C110.467 62.7703 110.6 63.5052 110.6 64.2743C110.6 65.7441 110.267 66.9575 109.6 67.9146C108.933 68.8716 108 69.5894 106.917 69.9996C105.783 70.4269 104.533 70.5807 103.167 70.5807C102.767 70.5807 102.5 70.5807 102.333 70.5636C102.167 70.5465 101.933 70.5465 101.617 70.5465V76.0326C101.633 76.1522 101.55 76.2547 101.433 76.2718H98.2C98.0667 76.2718 98 76.2035 98 76.0496ZM101.633 61.574V67.3164C101.867 67.3335 102.083 67.3506 102.283 67.3506H103.167C103.817 67.3506 104.467 67.248 105.083 67.0429C105.617 66.8891 106.083 66.5644 106.45 66.1372C106.8 65.7099 106.967 65.1288 106.967 64.3768C106.983 63.847 106.85 63.3172 106.583 62.8558C106.3 62.4114 105.9 62.0696 105.417 61.8816C104.8 61.6253 104.133 61.5227 103.45 61.5398C103.017 61.5398 102.633 61.5398 102.317 61.5569C101.983 61.5398 101.75 61.5569 101.633 61.574ZM121 66.2739C120.5 66.0004 119.967 65.8124 119.4 65.6928C118.783 65.5561 118.167 65.4706 117.533 65.4706C117.2 65.4535 116.85 65.5048 116.533 65.5903C116.317 65.6415 116.133 65.7612 116.017 65.9321C115.933 66.0688 115.883 66.2397 115.883 66.3935C115.883 66.5473 115.95 66.7011 116.05 66.8379C116.2 67.0259 116.4 67.1797 116.617 67.2993C117 67.5044 117.4 67.6924 117.8 67.8633C118.7 68.1709 119.567 68.5982 120.367 69.1109C120.917 69.4698 121.367 69.9483 121.683 70.5294C121.95 71.0763 122.083 71.6745 122.067 72.2897C122.083 73.093 121.85 73.8962 121.417 74.5628C120.95 75.2464 120.3 75.7762 119.55 76.0838C118.733 76.4427 117.733 76.6307 116.533 76.6307C115.767 76.6307 115.017 76.5624 114.267 76.4085C113.683 76.306 113.1 76.118 112.567 75.8617C112.45 75.7933 112.367 75.6737 112.383 75.5369V72.5632C112.383 72.5119 112.4 72.4435 112.45 72.4094C112.5 72.3752 112.55 72.3923 112.6 72.4265C113.25 72.8195 113.933 73.093 114.667 73.2639C115.3 73.4348 115.967 73.5203 116.633 73.5203C117.267 73.5203 117.717 73.4348 118.017 73.281C118.283 73.1613 118.467 72.8708 118.467 72.5632C118.467 72.3239 118.333 72.1017 118.067 71.8796C117.8 71.6574 117.25 71.401 116.433 71.0763C115.583 70.7687 114.8 70.3585 114.067 69.8458C113.55 69.4698 113.117 68.9742 112.8 68.3931C112.533 67.8462 112.4 67.248 112.417 66.6499C112.417 65.915 112.617 65.2143 112.983 64.5819C113.4 63.8983 114.017 63.3514 114.733 63.0096C115.517 62.5994 116.5 62.4114 117.683 62.4114C118.367 62.4114 119.067 62.4627 119.75 62.5652C120.25 62.6336 120.733 62.7703 121.183 62.9583C121.25 62.9754 121.317 63.0438 121.35 63.1121C121.367 63.1805 121.383 63.2489 121.383 63.3172V66.103C121.383 66.1713 121.35 66.2397 121.3 66.2739C121.15 66.3081 121.067 66.3081 121 66.2739Z" fill="#31A8FF"/>
</g>
<path fill-rule="evenodd" clip-rule="evenodd" d="M196.219 188.448C195.677 189.75 195.374 191.139 195.325 192.548C195.4 193.418 195.696 194.253 196.186 194.975C197.107 196.042 198.216 196.932 199.456 197.602L207.469 202.936C208.455 203.721 209.563 204.337 210.75 204.761C211.52 204.944 212.323 204.944 213.094 204.761C214.288 204.342 215.406 203.73 216.402 202.948L224.5 197.611C225.753 196.939 226.874 196.046 227.808 194.973C228.301 194.248 228.597 193.406 228.667 192.531C228.614 191.11 228.303 189.711 227.75 188.402L220.667 166.111C220.509 165.389 220.223 164.701 219.823 164.08C219.532 163.726 219.156 163.452 218.73 163.283C218.018 163.09 217.277 163.025 216.542 163.092H207.32C206.585 163.025 205.844 163.092 205.133 163.287C204.706 163.456 204.329 163.731 204.039 164.087C203.641 164.709 203.358 165.397 203.203 166.119L196.219 188.448ZM216.906 167.823C217.236 168.347 217.469 168.925 217.595 169.531L223.677 189.506C221.392 188.321 218.941 187.493 216.406 187.048L212.455 173.673C212.43 173.594 212.388 173.522 212.33 173.463C212.272 173.404 212.201 173.36 212.122 173.334C212.044 173.308 211.96 173.302 211.879 173.315C211.797 173.328 211.72 173.36 211.653 173.409C211.564 173.475 211.499 173.567 211.467 173.673L207.561 187.044C205.015 187.487 202.551 188.319 200.258 189.511L206.364 169.536C206.489 168.929 206.723 168.35 207.055 167.827C207.297 167.53 207.609 167.299 207.964 167.155C208.562 166.993 209.184 166.94 209.8 166.998H214.164C214.781 166.94 215.403 166.993 216.002 167.155C216.357 167.299 216.671 167.531 216.913 167.83L216.906 167.823ZM212.198 191.906C214.079 192.015 215.944 191.509 217.511 190.464C217.689 191.025 217.752 191.616 217.697 192.202C217.641 192.787 217.468 193.356 217.188 193.873C216.611 194.853 215.774 195.654 214.77 196.187C213.717 196.856 212.811 197.437 212.811 198.98C212.81 199.474 212.921 199.963 213.138 200.408C212.427 200.113 211.82 199.614 211.394 198.974C210.967 198.335 210.739 197.583 210.739 196.814V196.719C210.739 195.652 210.739 194.337 209.236 194.337C209.026 194.337 208.819 194.378 208.625 194.458C208.235 194.619 207.925 194.929 207.763 195.319C207.682 195.512 207.64 195.72 207.639 195.93C206.609 194.805 206.055 193.323 206.095 191.798C206.088 191.138 206.18 190.481 206.369 189.848C206.994 191.031 209.369 191.911 212.198 191.911V191.906Z" fill="#FF5D01"/>
<g clip-path="url(#clip6_16_49)">
<path d="M408.552 87C408.263 87 407.995 87.0622 407.747 87.1452C408.274 87.4978 408.563 87.9645 408.707 88.4934C408.718 88.566 408.738 88.6178 408.749 88.6904C408.759 88.7527 408.769 88.8149 408.769 88.8771C408.811 89.7897 408.532 89.9038 408.336 90.4431C408.036 91.1379 408.119 91.8846 408.48 92.4861C408.511 92.5587 408.552 92.6417 408.604 92.7143C408.212 90.0905 410.391 89.6964 410.794 88.8771C410.825 88.1615 410.236 87.6845 409.771 87.3526C409.327 87.083 408.924 87 408.552 87ZM411.837 87.5911C411.796 87.8297 411.827 87.7674 411.817 87.8919C411.806 87.9748 411.806 88.0786 411.796 88.1615C411.775 88.2445 411.755 88.3275 411.724 88.4104C411.703 88.4934 411.672 88.5764 411.641 88.6593C411.6 88.7423 411.569 88.8149 411.528 88.8978C411.497 88.9393 411.476 88.9808 411.445 89.0223C411.424 89.0534 411.404 89.0845 411.383 89.1156C411.331 89.1882 411.28 89.2608 411.228 89.323C411.166 89.3853 411.114 89.4579 411.042 89.5097C411.042 89.5201 411.042 89.5201 411.042 89.5201C410.98 89.572 410.918 89.6342 410.846 89.686C410.629 89.852 410.381 89.9764 410.154 90.132C410.081 90.1838 410.009 90.2253 409.947 90.2875C409.875 90.3394 409.813 90.3912 409.751 90.4535C409.678 90.5157 409.627 90.5779 409.565 90.6505C409.513 90.7127 409.451 90.7853 409.41 90.8579C409.358 90.9305 409.307 91.0031 409.265 91.0757C409.224 91.1587 409.193 91.2313 409.152 91.3142C409.121 91.3972 409.09 91.4698 409.069 91.5528C409.038 91.6461 409.017 91.7291 408.997 91.812C408.986 91.8535 408.986 91.9054 408.976 91.9469C408.966 91.9884 408.966 92.0298 408.955 92.0713C408.955 92.1543 408.945 92.2476 408.945 92.3306C408.945 92.3928 408.945 92.455 408.955 92.5172C408.955 92.6002 408.966 92.6832 408.986 92.7765C408.997 92.8595 409.017 92.9424 409.038 93.0254C409.069 93.1084 409.09 93.1913 409.121 93.2743C409.141 93.3262 409.172 93.378 409.193 93.4195L406.817 92.4965C406.414 92.3824 406.022 92.2787 405.619 92.1854C405.402 92.1335 405.185 92.0817 404.968 92.0298C404.348 91.9054 403.718 91.812 403.088 91.7498C403.067 91.7498 403.057 91.7394 403.036 91.7394C402.416 91.6772 401.807 91.6461 401.187 91.6461C400.733 91.6461 400.278 91.6668 399.834 91.6979C399.204 91.7394 398.574 91.8224 397.944 91.9261C397.789 91.9468 397.634 91.978 397.479 92.0091C397.158 92.0713 396.849 92.1439 396.549 92.2165C396.394 92.258 396.239 92.2994 396.084 92.3409C395.929 92.4032 395.785 92.4757 395.64 92.538C395.526 92.5898 395.413 92.6417 395.299 92.6935C395.278 92.7039 395.258 92.7039 395.247 92.7143C395.144 92.7661 395.051 92.8076 394.958 92.8595C394.927 92.8698 394.907 92.8802 394.886 92.8906C394.772 92.9424 394.659 93.0046 394.566 93.0565C394.493 93.0876 394.421 93.1291 394.359 93.1602C394.328 93.1809 394.287 93.2017 394.266 93.2121C394.173 93.2639 394.08 93.3158 393.997 93.3676C393.904 93.4195 393.822 93.4713 393.75 93.5232C393.677 93.575 393.605 93.6165 393.543 93.6684C393.533 93.6787 393.522 93.6787 393.512 93.6891C393.45 93.7306 393.378 93.7824 393.316 93.8343C393.316 93.8343 393.305 93.8447 393.295 93.855C393.243 93.8965 393.192 93.938 393.14 93.9795C393.119 93.9898 393.099 94.0106 393.078 94.021C393.026 94.0625 392.975 94.1143 392.923 94.1558C392.913 94.1765 392.892 94.1869 392.882 94.1973C392.82 94.2595 392.758 94.3114 392.696 94.3736C392.686 94.3736 392.686 94.384 392.675 94.3943C392.613 94.4462 392.551 94.5084 392.489 94.5706C392.479 94.581 392.479 94.5913 392.469 94.5913C392.417 94.6432 392.365 94.695 392.314 94.7573C392.293 94.778 392.262 94.7988 392.241 94.8195C392.19 94.8817 392.128 94.9439 392.066 95.0062C392.055 95.0269 392.035 95.0373 392.024 95.058C391.942 95.141 391.869 95.2239 391.787 95.3069C391.777 95.3173 391.766 95.3276 391.756 95.338C391.591 95.5143 391.415 95.6906 391.229 95.8462C391.043 96.0121 390.847 96.1677 390.651 96.3025C390.444 96.4477 390.248 96.5721 390.031 96.6966C389.824 96.8107 389.607 96.9144 389.38 97.0077C389.163 97.101 388.936 97.184 388.708 97.2566C388.275 97.3499 387.83 97.5262 387.448 97.5574C387.366 97.5574 387.273 97.5781 387.19 97.5885C387.097 97.6092 387.014 97.63 386.932 97.6507C386.849 97.6818 386.766 97.7129 386.684 97.744C386.601 97.7751 386.519 97.8166 386.436 97.8581C386.364 97.91 386.281 97.9514 386.209 98.0033C386.136 98.0552 386.064 98.1174 386.002 98.1796C385.93 98.2315 385.857 98.3041 385.795 98.3663C385.733 98.4389 385.671 98.5011 385.62 98.5737C385.568 98.6567 385.506 98.7293 385.465 98.8122C385.413 98.8848 385.362 98.9678 385.32 99.0507C385.279 99.1441 385.238 99.227 385.207 99.3204C385.176 99.4033 385.145 99.4967 385.114 99.59C385.093 99.673 385.072 99.756 385.062 99.8389C385.062 99.8493 385.052 99.8596 385.052 99.87C385.031 99.9634 385.031 100.088 385.021 100.15C385.01 100.223 385 100.285 385 100.357C385 100.399 385 100.451 385.01 100.492C385.021 100.565 385.031 100.627 385.052 100.689C385.072 100.752 385.093 100.814 385.124 100.876C385.124 100.886 385.124 100.886 385.124 100.886C385.155 100.949 385.196 101.011 385.238 101.073C385.279 101.135 385.32 101.198 385.372 101.26C385.424 101.312 385.486 101.374 385.548 101.426C385.61 101.488 385.671 101.54 385.744 101.592C385.992 101.809 386.054 101.882 386.374 102.048C386.426 102.079 386.477 102.1 386.539 102.131C386.55 102.131 386.56 102.141 386.57 102.141C386.57 102.162 386.57 102.172 386.581 102.193C386.591 102.276 386.612 102.359 386.632 102.442C386.653 102.535 386.684 102.618 386.715 102.691C386.746 102.753 386.766 102.815 386.797 102.878C386.808 102.898 386.818 102.919 386.828 102.929C386.87 103.012 386.911 103.085 386.952 103.158C387.004 103.23 387.056 103.303 387.107 103.375C387.159 103.438 387.221 103.51 387.283 103.572C387.345 103.635 387.407 103.686 387.479 103.749C387.479 103.749 387.49 103.759 387.5 103.759C387.562 103.811 387.624 103.863 387.686 103.904C387.758 103.956 387.83 103.998 387.913 104.039C387.985 104.081 388.068 104.122 388.151 104.153C388.213 104.184 388.285 104.205 388.357 104.226C388.368 104.236 388.378 104.236 388.399 104.247C388.44 104.257 388.492 104.267 388.533 104.278C388.502 104.838 388.492 105.367 388.574 105.553C388.667 105.761 389.122 105.128 389.576 104.402C389.514 105.118 389.473 105.958 389.576 106.207C389.69 106.466 390.31 105.657 390.847 104.765C398.171 103.064 404.854 108.146 405.557 115.322C405.423 114.202 404.049 113.58 403.419 113.736C403.109 114.503 402.582 115.488 401.735 116.1C401.807 115.416 401.776 114.711 401.631 114.026C401.404 114.98 400.96 115.872 400.351 116.64C399.369 116.712 398.388 116.235 397.871 115.52C397.83 115.488 397.82 115.426 397.789 115.385C397.758 115.312 397.727 115.24 397.706 115.167C397.675 115.094 397.654 115.022 397.644 114.949C397.634 114.877 397.634 114.804 397.634 114.721C397.634 114.669 397.634 114.617 397.634 114.565C397.644 114.493 397.665 114.42 397.685 114.348C397.706 114.275 397.727 114.202 397.758 114.13C397.799 114.057 397.83 113.985 397.882 113.912C398.057 113.414 398.057 113.01 397.737 112.771C397.675 112.73 397.613 112.699 397.541 112.668C397.499 112.657 397.448 112.636 397.406 112.626C397.375 112.616 397.355 112.605 397.324 112.595C397.251 112.574 397.179 112.553 397.107 112.543C397.035 112.522 396.962 112.512 396.89 112.512C396.818 112.502 396.735 112.491 396.663 112.491C396.611 112.491 396.559 112.502 396.508 112.502C396.425 112.502 396.353 112.512 396.28 112.533C396.208 112.543 396.136 112.553 396.064 112.574C395.991 112.595 395.919 112.616 395.847 112.647C395.774 112.678 395.712 112.709 395.64 112.74C395.578 112.771 395.516 112.813 395.444 112.844C393.037 114.42 394.473 118.112 396.115 119.18C395.495 119.294 394.865 119.429 394.69 119.564C394.679 119.575 394.669 119.585 394.669 119.585C395.113 119.854 395.578 120.083 396.064 120.28C396.725 120.497 397.427 120.695 397.737 120.777V120.788C398.594 120.964 399.462 121.026 400.34 120.975C404.916 120.653 408.666 117.158 409.348 112.554C409.369 112.647 409.389 112.73 409.41 112.823C409.441 113.01 409.482 113.207 409.503 113.404C409.503 113.404 409.503 113.404 409.503 113.414C409.524 113.508 409.534 113.601 409.544 113.684C409.544 113.705 409.544 113.715 409.544 113.725C409.555 113.819 409.565 113.912 409.565 113.995C409.575 114.109 409.586 114.223 409.586 114.337C409.586 114.389 409.586 114.441 409.586 114.503C409.586 114.555 409.596 114.617 409.596 114.669C409.596 114.731 409.586 114.794 409.586 114.856C409.586 114.908 409.586 114.96 409.586 115.001C409.586 115.074 409.575 115.136 409.575 115.208C409.575 115.25 409.575 115.291 409.565 115.343C409.565 115.416 409.555 115.488 409.555 115.571C409.544 115.603 409.544 115.634 409.544 115.665C409.534 115.748 409.524 115.82 409.513 115.903C409.513 115.934 409.513 115.966 409.503 115.997C409.492 116.1 409.472 116.194 409.462 116.297V116.308V116.318C409.441 116.412 409.42 116.515 409.4 116.609C409.4 116.619 409.4 116.629 409.4 116.64C409.379 116.733 409.358 116.826 409.338 116.92C409.338 116.93 409.327 116.951 409.327 116.961C409.307 117.055 409.286 117.148 409.255 117.241C409.255 117.252 409.255 117.262 409.255 117.272C409.224 117.376 409.193 117.469 409.172 117.563C409.162 117.573 409.162 117.583 409.162 117.583C409.131 117.687 409.1 117.791 409.069 117.895C409.028 117.998 408.997 118.092 408.955 118.195C408.914 118.299 408.883 118.403 408.842 118.496C408.8 118.6 408.759 118.693 408.718 118.797H408.707C408.666 118.89 408.625 118.994 408.573 119.087C408.563 119.118 408.552 119.139 408.542 119.16C408.532 119.17 408.532 119.18 408.521 119.191C407.85 120.549 406.858 121.742 405.619 122.675C405.536 122.727 405.453 122.79 405.371 122.852C405.35 122.872 405.319 122.883 405.298 122.904C405.226 122.955 405.154 123.007 405.071 123.059L405.102 123.121H405.113C405.257 123.101 405.402 123.08 405.546 123.059H405.557C405.825 123.018 406.094 122.966 406.362 122.914C406.435 122.904 406.517 122.883 406.59 122.862C406.641 122.852 406.683 122.841 406.734 122.831C406.807 122.821 406.879 122.8 406.951 122.789C407.013 122.769 407.075 122.758 407.137 122.738C408.17 122.489 409.172 122.146 410.133 121.742C408.49 123.992 406.29 125.807 403.718 127C404.906 126.917 406.094 126.72 407.241 126.388C411.404 125.154 414.905 122.344 417.002 118.558C416.579 120.954 415.629 123.235 414.224 125.227C415.226 124.563 416.145 123.795 416.982 122.924C419.296 120.498 420.814 117.417 421.331 114.109C421.682 115.748 421.785 117.438 421.63 119.108C429.089 108.665 422.25 97.8375 419.389 94.9856C419.378 94.9648 419.368 94.9544 419.368 94.9337C419.358 94.9441 419.358 94.9441 419.358 94.9544C419.358 94.944 419.358 94.944 419.347 94.9337C419.347 95.0582 419.337 95.1826 419.327 95.307C419.296 95.5456 419.265 95.7737 419.223 96.0019C419.172 96.23 419.11 96.4582 419.048 96.6864C418.975 96.9041 418.893 97.1323 418.8 97.3501C418.707 97.5575 418.604 97.7753 418.49 97.9827C418.376 98.1797 418.252 98.3872 418.118 98.5738C417.984 98.7709 417.839 98.9575 417.695 99.1338C417.54 99.3205 417.374 99.4865 417.209 99.6524C417.106 99.7457 417.013 99.8287 416.909 99.9116C416.827 99.9842 416.755 100.046 416.672 100.119C416.486 100.264 416.3 100.399 416.093 100.524C415.897 100.648 415.691 100.772 415.484 100.876C415.267 100.98 415.05 101.073 414.833 101.167C414.616 101.249 414.389 101.322 414.162 101.384C413.934 101.447 413.697 101.498 413.47 101.54C413.232 101.581 412.994 101.602 412.767 101.623C412.602 101.633 412.437 101.644 412.271 101.644C412.034 101.644 411.796 101.623 411.569 101.602C411.331 101.581 411.094 101.55 410.866 101.498C410.629 101.457 410.402 101.395 410.174 101.322H410.164C410.391 101.301 410.618 101.281 410.846 101.239C411.083 101.198 411.311 101.146 411.538 101.084C411.765 101.021 411.992 100.949 412.209 100.866C412.437 100.783 412.653 100.679 412.86 100.575C413.077 100.472 413.273 100.358 413.48 100.233C413.676 100.098 413.872 99.9635 414.058 99.8183C414.244 99.6731 414.42 99.5175 414.585 99.3516C414.761 99.196 414.916 99.0197 415.071 98.8434C415.226 98.6568 415.37 98.4701 415.505 98.2834C415.525 98.2523 415.546 98.2108 415.567 98.1797C415.67 98.0138 415.773 97.8478 415.866 97.6819C415.98 97.4745 416.083 97.2671 416.176 97.0493C416.269 96.8315 416.352 96.6137 416.424 96.3856C416.496 96.1678 416.548 95.9396 416.6 95.7115C416.641 95.4729 416.682 95.2448 416.703 95.0166C416.724 94.7781 416.744 94.5396 416.744 94.3114C416.744 94.1455 416.734 93.9796 416.724 93.8136C416.703 93.5751 416.672 93.3469 416.641 93.1188C416.6 92.8803 416.548 92.6521 416.486 92.4239C416.414 92.2062 416.341 91.978 416.259 91.7602C416.176 91.5424 416.073 91.3247 415.969 91.1172C415.856 90.9098 415.742 90.7024 415.618 90.5054C415.484 90.3083 415.35 90.1216 415.205 89.935C415.05 89.7587 414.895 89.5824 414.73 89.4061C414.647 89.3231 414.554 89.2298 414.461 89.1468C413.996 88.7838 413.511 88.4416 413.025 88.1305C412.953 88.089 412.891 88.0579 412.819 88.0268C412.478 87.809 412.158 87.6948 411.837 87.5911Z" fill="#E0234E"/>
</g>
<g clip-path="url(#clip7_16_49)">
<path d="M421.298 33.3895L407.581 4.25805C407.234 3.52766 406.514 3.04644 405.706 3.00464C404.897 2.9504 404.124 3.35087 403.702 4.04366L388.824 28.1416C388.362 28.8844 388.371 29.8275 388.848 30.5606L396.123 41.8253C396.688 42.6938 397.757 43.0869 398.75 42.7916L419.86 36.5475C420.503 36.3594 421.033 35.9019 421.312 35.2931C421.588 34.6872 421.584 33.9906 421.299 33.3885L421.298 33.3895ZM418.227 34.6389L400.315 39.9357C399.768 40.0983 399.244 39.6246 399.357 39.0732L405.757 8.43009C405.877 7.85673 406.668 7.76599 406.919 8.29647L418.766 33.4543C418.872 33.6812 418.873 33.9431 418.769 34.1711C418.665 34.399 418.467 34.57 418.226 34.6389H418.227Z" fill="black"/>
</g>
<path fill-rule="evenodd" clip-rule="evenodd" d="M408.413 167.578L416.628 172.321C416.859 172.076 417.13 171.86 417.436 171.682C419.14 170.702 421.313 171.284 422.302 172.988C423.282 174.691 422.7 176.864 420.997 177.854C420.692 178.029 420.373 178.154 420.048 178.232V187.721C420.369 187.799 420.685 187.924 420.986 188.097C422.7 189.086 423.282 191.259 422.292 192.963C421.313 194.667 419.13 195.248 417.426 194.269C417.087 194.074 416.792 193.831 416.545 193.554L408.381 198.268C408.497 198.621 408.56 198.998 408.56 199.39C408.56 201.349 406.969 202.951 405 202.951C403.031 202.951 401.44 201.359 401.44 199.39C401.44 199.04 401.49 198.702 401.584 198.383L393.371 193.641C393.142 193.881 392.876 194.094 392.574 194.269C390.86 195.248 388.687 194.667 387.708 192.963C386.728 191.259 387.31 189.086 389.014 188.097C389.315 187.923 389.631 187.799 389.952 187.721V178.232C389.627 178.154 389.308 178.029 389.003 177.854C387.3 176.875 386.718 174.691 387.698 172.988C388.677 171.284 390.86 170.702 392.564 171.682C392.869 171.859 393.138 172.074 393.368 172.317L401.585 167.573C401.49 167.252 401.44 166.912 401.44 166.56C401.44 164.591 403.031 163 405 163C406.969 163 408.56 164.591 408.56 166.56C408.56 166.914 408.509 167.256 408.413 167.578ZM407.557 169.04L415.792 173.794C415.537 174.688 415.631 175.679 416.13 176.548C416.631 177.42 417.448 177.998 418.354 178.223V187.725C418.308 187.736 418.262 187.748 418.216 187.761L407.462 169.135C407.494 169.103 407.526 169.072 407.557 169.04ZM402.54 169.137L391.786 187.763C391.74 187.75 391.693 187.737 391.646 187.726V178.223C392.552 177.998 393.369 177.42 393.87 176.548C394.37 175.677 394.463 174.684 394.207 173.788L402.439 169.036C402.472 169.07 402.506 169.104 402.54 169.137ZM405.995 169.981L416.747 188.603C416.506 188.832 416.294 189.1 416.12 189.402C415.947 189.703 415.823 190.019 415.745 190.341H394.256C394.178 190.02 394.053 189.704 393.88 189.402C393.705 189.102 393.494 188.836 393.254 188.607L404.008 169.981C404.323 170.072 404.656 170.121 405 170.121C405.345 170.121 405.679 170.072 405.995 169.981ZM407.633 196.991L415.814 192.268C415.789 192.191 415.767 192.113 415.748 192.035H394.251C394.24 192.081 394.227 192.127 394.214 192.172L402.435 196.919C403.082 196.247 403.992 195.83 405 195.83C406.044 195.83 406.982 196.277 407.633 196.991Z" fill="#E535AB"/>
<path d="M315.069 112.523H320.034V100.6L314.44 95.0054L310.929 98.5167L315.069 102.657V112.523ZM320.047 115.012H312.815H302.727L298.587 110.872L300.342 109.116L303.762 112.536H310.798L303.867 105.592L305.635 103.823L312.566 110.754V103.718L309.16 100.312L310.902 98.5691L302.294 89.9219H293.804H285L289.953 94.8744V94.8875H289.979H300.224L303.854 98.5167L298.547 103.823L294.918 100.194V97.3768H289.953V102.251L298.547 110.846L295.049 114.344L300.644 119.938H309.134H325L320.047 115.012Z" fill="#231F20"/>
<defs>
<linearGradient id="paint0_linear_16_49" x1="-nan" y1="-nan" x2="-nan" y2="-nan" gradientUnits="userSpaceOnUse">
<stop stop-color="white"/>
<stop offset="0.609375" stop-color="white" stop-opacity="0.57"/>
<stop offset="0.796875" stop-color="white" stop-opacity="0"/>
<stop offset="1" stop-color="white" stop-opacity="0"/>
</linearGradient>
<linearGradient id="paint1_linear_16_49" x1="27.8437" y1="102.656" x2="36.8935" y2="113.498" gradientUnits="userSpaceOnUse">
<stop stop-color="white"/>
<stop offset="1" stop-color="white" stop-opacity="0"/>
</linearGradient>
<clipPath id="clip0_16_49">
<rect width="40" height="40" fill="white" transform="translate(3 80)"/>
</clipPath>
<clipPath id="clip1_16_49">
<rect width="40" height="20" fill="white" transform="translate(0 16)"/>
</clipPath>
<clipPath id="clip2_16_49">
<rect width="40" height="40" fill="white" transform="translate(91 202)"/>
</clipPath>
<clipPath id="clip3_16_49">
<rect width="31" height="40" fill="white" transform="translate(143 116)"/>
</clipPath>
<clipPath id="clip4_16_49">
<rect width="40" height="40" fill="white" transform="translate(0 164)"/>
</clipPath>
<clipPath id="clip5_16_49">
<rect width="40" height="40" fill="white" transform="translate(89 48)"/>
</clipPath>
<clipPath id="clip6_16_49">
<rect width="40" height="40" fill="white" transform="translate(385 87)"/>
</clipPath>
<clipPath id="clip7_16_49">
<rect width="40" height="40" fill="white" transform="translate(385 3)"/>
</clipPath>
</defs>
</svg>
