<svg width="224" height="189" viewBox="0 0 224 189" fill="none" xmlns="http://www.w3.org/2000/svg">
<path fill-rule="evenodd" clip-rule="evenodd" d="M204.45 -7.90376C200.325 -6.19776 194.25 -3.79476 190.95 -2.56376C184.958 -0.328757 160.184 9.53524 146.95 14.9552C133.862 20.3162 126.963 23.0672 119.45 25.9212C111.991 28.7552 109.365 29.8152 91.709 37.1172C86.627 39.2192 82.07 40.9392 81.584 40.9392C81.097 40.9392 78.055 42.1102 74.824 43.5422C71.593 44.9732 66.25 47.1712 62.95 48.4252C53.151 52.1512 26.568 62.7812 17.777 66.4912C13.281 68.3872 8.95396 69.9392 8.16096 69.9392C6.00496 69.9392 1.42696 73.8692 0.38196 76.6182C-0.25004 78.2812 -0.10204 80.0762 0.85796 82.3722C2.34896 85.9412 0.302961 84.9712 31.95 97.1212C36.35 98.8112 43.775 101.672 48.45 103.479C53.125 105.287 57.654 106.983 58.515 107.25C60.103 107.741 60.381 108.646 67.949 137.939C76.351 170.464 77.006 171.939 83.041 171.939C86.46 171.939 93.217 167.643 112.03 153.507C115.375 150.995 118.459 148.939 118.885 148.939C119.311 148.939 121.75 150.37 124.305 152.12C126.86 153.87 135.7 159.86 143.95 165.431C152.2 171.003 163 178.346 167.95 181.749C177.734 188.476 182.359 189.601 186.197 186.189C188.229 184.382 189.435 178.888 199.42 125.939C201.65 114.114 205.044 96.2262 206.962 86.1892C208.88 76.1522 212.019 59.7262 213.936 49.6892C215.853 39.6512 218.956 23.6092 220.831 14.0392C223.482 0.510242 224.018 -4.00076 223.24 -6.23176C221.229 -12.0028 215.577 -12.5048 204.45 -7.90376ZM166.927 31.7662C161.44 37.1042 145.25 52.7043 130.95 66.4333C89.924 105.819 81.45 114.242 81.45 115.636C81.45 116.353 81.112 116.939 80.7 116.939C80.288 116.939 78.825 112.785 77.45 107.709C76.075 102.632 74.05 97.4463 72.95 96.1833C71.85 94.9213 68.025 92.8372 64.45 91.5542C54.656 88.0372 33.004 79.7482 32.558 79.3442C32.082 78.9122 39.047 75.8402 50.45 71.4512C59.78 67.8602 85.919 57.4432 96.95 52.9192C107.449 48.6142 119.222 43.9552 125.95 41.4442C134.066 38.4142 161.419 27.4532 169.45 24.0112C173.025 22.4792 176.165 21.4132 176.427 21.6422C176.689 21.8722 172.414 26.4272 166.927 31.7662ZM200.972 29.1742C197.753 45.4442 183.735 118.563 177.863 149.716C176.383 157.568 174.754 164.251 174.243 164.567C173.732 164.883 169.182 162.317 164.132 158.865C155.359 152.868 135.754 139.599 113.7 124.734C108.062 120.934 103.45 117.477 103.45 117.051C103.45 116.625 112.305 107.763 123.127 97.3582C156.423 65.3452 171.268 51.0112 186.385 36.2742C194.378 28.4842 201.208 22.2892 201.564 22.5102C201.92 22.7302 201.654 25.7292 200.972 29.1742ZM84.809 124.783C85.727 125.797 90.272 129.06 94.91 132.033C102.175 136.69 105.346 139.912 102.7 139.95C102.288 139.955 99.259 141.98 95.97 144.45C92.68 146.919 89.53 148.931 88.97 148.921C88.409 148.911 86.727 144.074 85.232 138.171C83.738 132.268 82.223 126.427 81.866 125.189C81.08 122.464 82.53 122.264 84.809 124.783Z" fill="black"/>
</svg>
